<svg width="15" height="16" viewBox="0 0 15 16" fill="none" xmlns="http://www.w3.org/2000/svg">
<path d="M14.684 13.3178C14.8852 13.519 14.9982 13.7919 14.9982 14.0764C14.9982 14.3609 14.8852 14.6338 14.684 14.835C14.4828 15.0362 14.2099 15.1492 13.9253 15.1492C13.6408 15.1492 13.3679 15.0362 13.1667 14.835L7.5 9.16689L1.83154 14.8332C1.63034 15.0344 1.35744 15.1474 1.07289 15.1474C0.788345 15.1474 0.51545 15.0344 0.314243 14.8332C0.113037 14.632 2.99821e-09 14.3591 0 14.0746C-2.99821e-09 13.7901 0.113037 13.5172 0.314243 13.316L5.9827 7.64968L0.316028 1.98156C0.114822 1.78036 0.0017851 1.50749 0.0017851 1.22295C0.0017851 0.938421 0.114822 0.665543 0.316028 0.464348C0.517235 0.263153 0.790129 0.150123 1.07468 0.150123C1.35923 0.150123 1.63212 0.263153 1.83333 0.464348L7.5 6.13247L13.1685 0.463455C13.3697 0.262261 13.6426 0.149231 13.9271 0.149231C14.2117 0.149231 14.4845 0.262261 14.6858 0.463455C14.887 0.66465 15 0.937528 15 1.22206C15 1.50659 14.887 1.77947 14.6858 1.98067L9.0173 7.64968L14.684 13.3178Z" fill="white"/>
</svg>
