<svg width="15" height="15" viewBox="0 0 15 15" fill="none" xmlns="http://www.w3.org/2000/svg">
<path d="M14.684 13.1753C14.8852 13.3765 14.9982 13.6494 14.9982 13.9339C14.9982 14.2184 14.8852 14.4913 14.684 14.6925C14.4828 14.8937 14.2099 15.0067 13.9253 15.0067C13.6408 15.0067 13.3679 14.8937 13.1667 14.6925L7.5 9.02437L1.83154 14.6907C1.63034 14.8919 1.35744 15.0049 1.07289 15.0049C0.788345 15.0049 0.51545 14.8919 0.314243 14.6907C0.113037 14.4895 2.99821e-09 14.2166 0 13.9321C-2.99821e-09 13.6476 0.113037 13.3747 0.314243 13.1735L5.9827 7.50716L0.316028 1.83904C0.114822 1.63785 0.0017851 1.36497 0.0017851 1.08044C0.0017851 0.795904 0.114822 0.523025 0.316028 0.321831C0.517235 0.120636 0.790129 0.0076062 1.07468 0.00760619C1.35923 0.00760619 1.63212 0.120636 1.83333 0.321831L7.5 5.98995L13.1685 0.320938C13.3697 0.119744 13.6426 0.00671386 13.9271 0.00671387C14.2117 0.00671387 14.4845 0.119744 14.6858 0.320938C14.887 0.522133 15 0.795011 15 1.07954C15 1.36408 14.887 1.63695 14.6858 1.83815L9.0173 7.50716L14.684 13.1753Z" fill="#909090"/>
</svg>
