<svg width="32" height="32" viewBox="0 0 32 32" fill="none" xmlns="http://www.w3.org/2000/svg">
<path d="M27.5173 18.848L27.3853 17.5213L27.3413 17.5253L27.2986 17.5333L27.5173 18.848ZM27.5173 18.848L27.6506 20.1747L27.6946 20.1707L27.7373 20.164L27.5173 18.848ZM22.1306 26.1573L22.9746 25.1253L22.9639 25.1173L22.1306 26.1573ZM22.1306 26.1573L21.2866 27.1893L21.2973 27.1987L22.1306 26.1573ZM9.86928 26.1573L9.02528 25.1267L9.00395 25.144L8.98395 25.1613L9.86928 26.1573ZM9.86928 26.1573L10.7133 27.1907L10.7346 27.1733L10.7546 27.1547L9.86928 26.1573ZM4.48128 13.152V11.8187H4.41461L4.34928 11.8253L4.48128 13.152ZM4.48128 13.152V14.4853H4.54795L4.61461 14.4787L4.48128 13.152ZM20.1746 4.34801C20.1523 4.09158 20.1207 3.8359 20.0826 3.58134C20.041 3.30125 19.9555 3.02947 19.8293 2.77601L17.4599 4.00001C17.4293 3.94001 17.4359 3.91867 17.4533 4.02401C17.4733 4.14267 17.4906 4.30801 17.5213 4.61467L20.1746 4.34801ZM20.3013 5.61467C20.3853 5.72401 20.3573 5.77334 20.3106 5.51334C20.2666 5.26534 20.2319 4.91734 20.1746 4.34801L17.5199 4.61334C17.5733 5.13867 17.6186 5.61067 17.6866 5.98667C17.7519 6.34667 17.8666 6.82001 18.1799 7.23067L20.3013 5.61467ZM20.3013 5.61467L18.1799 7.23067C18.4653 7.60514 18.8447 7.89738 19.2796 8.07771C19.7145 8.25803 20.1893 8.32001 20.6559 8.25734L20.3013 5.61467ZM21.2853 4.80801C20.9865 5.06055 20.6792 5.30291 20.3639 5.53467C20.1466 5.68534 20.1639 5.63201 20.3013 5.61467L20.6559 8.25734C21.1679 8.18801 21.5839 7.93467 21.8853 7.72401C22.1986 7.50801 22.5653 7.20667 22.9733 6.87201L21.2853 4.80801ZM22.6399 3.94134C22.3717 4.03104 22.1193 4.16243 21.8919 4.33067C21.7053 4.46401 21.4959 4.63601 21.2853 4.80801L22.9733 6.87201C23.2119 6.67734 23.3413 6.57201 23.4399 6.50267C23.5266 6.44001 23.5146 6.46134 23.4519 6.48134L22.6399 3.94134ZM24.5119 4.03467C23.9198 3.77807 23.2547 3.74491 22.6399 3.94134L23.4519 6.48134L24.5119 4.03467ZM25.7733 5.03201C25.5938 4.84733 25.4084 4.66857 25.2173 4.49601C25.0074 4.30605 24.7689 4.15036 24.5106 4.03467L23.4519 6.48134C23.3906 6.45467 23.3813 6.43334 23.4613 6.50401C23.5519 6.58401 23.6706 6.70001 23.8879 6.91734L25.7733 5.03201ZM26.9653 6.22401L25.7733 5.03201L23.8879 6.91734L25.0799 8.10934L26.9653 6.22401ZM27.9626 7.48534C27.8469 7.22701 27.6912 6.98852 27.5013 6.77867C27.3284 6.58832 27.1496 6.40334 26.9653 6.22401L25.0799 8.11067C25.2973 8.32801 25.4133 8.44667 25.4933 8.53734C25.5639 8.61734 25.5426 8.60801 25.5159 8.54667L27.9626 7.48534ZM28.0559 9.35734C28.2524 8.7426 28.2192 8.07749 27.9626 7.48534L25.5159 8.54667L28.0559 9.35734ZM27.1893 10.712C27.3552 10.5152 27.5144 10.3129 27.6666 10.1053C27.8079 9.90801 27.9599 9.66267 28.0559 9.35734L25.5159 8.54667C25.5359 8.48401 25.5559 8.47067 25.4946 8.55867C25.4253 8.65601 25.3213 8.78534 25.1253 9.02401L27.1893 10.712ZM26.3826 11.6973C26.3653 11.8347 26.3119 11.8507 26.4626 11.6333C26.6053 11.4267 26.8266 11.1547 27.1893 10.712L25.1253 9.02401C24.7919 9.43201 24.4893 9.79867 24.2719 10.112C24.0626 10.4133 23.8093 10.8293 23.7399 11.3413L26.3826 11.6973ZM26.3826 11.6973L23.7399 11.3413C23.6773 11.8079 23.7393 12.2828 23.9196 12.7177C24.0999 13.1526 24.3922 13.532 24.7666 13.8173L26.3826 11.6973ZM27.6493 11.824C27.2594 11.7914 26.8707 11.7456 26.4839 11.6867C26.2239 11.64 26.2733 11.6133 26.3826 11.6973L24.7666 13.8173C25.1773 14.1307 25.6493 14.2453 26.0119 14.3107C26.3866 14.3773 26.8586 14.424 27.3839 14.4773L27.6493 11.824ZM29.2213 12.168C28.9678 12.0418 28.696 11.9563 28.4159 11.9147C28.1614 11.8765 27.9057 11.8463 27.6493 11.824L27.3839 14.4773C27.5814 14.4947 27.7783 14.517 27.9746 14.544C28.0813 14.5627 28.0586 14.5693 27.9986 14.5387L29.2213 12.168ZM30.4786 13.5587C30.2416 12.9582 29.7949 12.4641 29.2213 12.168L27.9999 14.5413L30.4786 13.5587ZM30.6653 15.156C30.6653 14.884 30.6653 14.6133 30.6506 14.384C30.6367 14.101 30.5782 13.822 30.4773 13.5573L27.9999 14.5413C27.9759 14.4787 27.9839 14.4573 27.9919 14.564C27.9999 14.684 27.9999 14.8507 27.9999 15.1587L30.6653 15.156ZM30.6653 16.8413V15.156H27.9986V16.8413H30.6653ZM30.4786 18.4387C30.5959 18.1413 30.6346 17.856 30.6506 17.612C30.6653 17.384 30.6653 17.1133 30.6653 16.8413H27.9986C27.9986 17.1493 27.9986 17.316 27.9906 17.436C27.9826 17.5427 27.9746 17.5213 27.9986 17.4587L30.4786 18.4387ZM29.2213 19.8293C29.7949 19.5332 30.2416 19.0391 30.4786 18.4387L27.9999 17.46L29.2213 19.8293ZM27.6493 20.1733C27.9213 20.1467 28.1893 20.12 28.4159 20.0827C28.6559 20.0427 28.9359 19.976 29.2213 19.8293L27.9999 17.46C28.0586 17.4293 28.0813 17.436 27.9759 17.4533C27.7798 17.4817 27.5828 17.5044 27.3853 17.5213L27.6493 20.1733ZM26.3839 20.3C26.2733 20.384 26.2239 20.3573 26.4839 20.3107C26.7319 20.2667 27.0799 20.2307 27.6493 20.1733L27.3839 17.52C26.8599 17.5733 26.3866 17.6187 26.0119 17.6867C25.6506 17.752 25.1773 17.8667 24.7666 18.18L26.3839 20.3ZM26.3839 20.3L24.7666 18.18C24.3922 18.4654 24.0999 18.8448 23.9196 19.2796C23.7393 19.7145 23.6773 20.1894 23.7399 20.656L26.3839 20.3ZM27.1893 21.284C26.9368 20.9856 26.6945 20.6787 26.4626 20.364C26.3119 20.1467 26.3666 20.1627 26.3839 20.3L23.7399 20.656C23.8093 21.168 24.0626 21.584 24.2733 21.8853C24.4906 22.1987 24.7919 22.5653 25.1253 22.9733L27.1893 21.284ZM28.0559 22.6387C27.9661 22.3709 27.8347 22.1189 27.6666 21.892C27.5333 21.704 27.3613 21.496 27.1893 21.284L25.1253 22.9733C25.3199 23.212 25.4253 23.34 25.4946 23.4387C25.5573 23.5253 25.5373 23.5147 25.5159 23.452L28.0559 22.6387ZM27.9626 24.512C28.2196 23.9195 28.2527 23.2538 28.0559 22.6387L25.5159 23.452L27.9626 24.512ZM26.9653 25.7733C27.1586 25.58 27.3493 25.3907 27.5013 25.2173C27.6613 25.0333 27.8346 24.8053 27.9626 24.5107L25.5159 23.4507C25.5426 23.3893 25.5639 23.3813 25.4933 23.4613C25.4133 23.552 25.2973 23.6693 25.0799 23.888L26.9653 25.7733ZM25.7733 26.964L26.9653 25.7733L25.0799 23.888L23.8879 25.0787L25.7733 26.964ZM24.5119 27.9627C24.7704 27.8466 25.0089 27.6904 25.2186 27.5C25.3906 27.3493 25.5813 27.1573 25.7733 26.964L23.8879 25.0787C23.7496 25.2204 23.6074 25.3583 23.4613 25.492C23.3813 25.564 23.3906 25.5427 23.4519 25.516L24.5119 27.9627ZM22.6399 28.056C23.2547 28.2524 23.9198 28.2193 24.5119 27.9627L23.4519 25.516L22.6399 28.056ZM21.2853 27.1893C21.4959 27.3613 21.7039 27.5333 21.8919 27.6667C22.0893 27.8067 22.3346 27.9587 22.6399 28.056L23.4519 25.516C23.5146 25.536 23.5266 25.556 23.4386 25.4947C23.28 25.3761 23.1248 25.2529 22.9733 25.1253L21.2853 27.1893ZM20.3013 26.384C20.1639 26.364 20.1466 26.3107 20.3639 26.4613C20.5706 26.6053 20.8413 26.8253 21.2839 27.188L22.9733 25.1253C22.5653 24.7907 22.1986 24.4893 21.8853 24.272C21.5839 24.0613 21.1679 23.8093 20.6559 23.74L20.3013 26.384ZM20.3013 26.384L20.6559 23.74C20.1893 23.6773 19.7145 23.7393 19.2796 23.9196C18.8447 24.1 18.4653 24.3922 18.1799 24.7667L20.3013 26.384ZM20.1733 27.6493C20.2306 27.08 20.2666 26.7307 20.3106 26.484C20.3573 26.224 20.3839 26.272 20.2999 26.3827L18.1799 24.7653C17.8666 25.176 17.7519 25.6493 17.6866 26.0107C17.6199 26.3867 17.5746 26.8587 17.5213 27.384L20.1733 27.6493ZM19.8279 29.2213C19.9746 28.936 20.0413 28.656 20.0813 28.416C20.1213 28.1893 20.1453 27.9213 20.1733 27.6493L17.5213 27.384C17.5035 27.5819 17.4804 27.778 17.4519 27.9747C17.4346 28.0813 17.4279 28.0587 17.4586 27.9987L19.8279 29.2213ZM18.4399 30.4787C19.0394 30.2412 19.5325 29.7945 19.8279 29.2213L17.4599 28L18.4399 30.4787ZM16.8399 30.6653C17.1133 30.6653 17.3839 30.6653 17.6133 30.6507C17.8559 30.6347 18.1413 30.5987 18.4399 30.4787L17.4599 28C17.5226 27.976 17.5439 27.984 17.4373 27.992C17.2392 28.0004 17.0409 28.003 16.8426 28L16.8399 30.6653ZM15.1559 30.6653H16.8399L16.8413 27.9987H15.1559V30.6653ZM13.5586 30.4787C13.8559 30.596 14.1413 30.6347 14.3853 30.6507C14.6133 30.6653 14.8839 30.6653 15.1559 30.6653V27.9987C14.8479 27.9987 14.6813 27.9987 14.5613 27.9907C14.4546 27.9827 14.4759 27.9747 14.5386 27.9987L13.5586 30.4787ZM12.1679 29.2213C12.464 29.795 12.9582 30.2417 13.5586 30.4787L14.5386 27.9987L12.1679 29.2213ZM11.8239 27.6493C11.8506 27.9213 11.8773 28.1893 11.9146 28.416C11.9546 28.656 12.0213 28.936 12.1679 29.2213L14.5413 28C14.5719 28.0587 14.5653 28.0813 14.5479 27.976C14.5196 27.7798 14.4969 27.5828 14.4799 27.3853L11.8239 27.6493ZM11.6973 26.3827C11.6133 26.2733 11.6399 26.2227 11.6866 26.484C11.7306 26.7307 11.7666 27.08 11.8239 27.6493L14.4773 27.384C14.4239 26.8587 14.3786 26.3867 14.3106 26.0107C14.2453 25.6507 14.1306 25.1773 13.8173 24.7667L11.6973 26.3827ZM11.6973 26.3827L13.8173 24.7667C13.5319 24.3922 13.1525 24.1 12.7176 23.9196C12.2828 23.7393 11.8079 23.6773 11.3413 23.74L11.6973 26.3827ZM10.7119 27.1893C11.1559 26.8267 11.4266 26.6053 11.6333 26.4627C11.8506 26.312 11.8346 26.3653 11.6973 26.3827L11.3413 23.74C10.8293 23.8093 10.4133 24.0627 10.1119 24.2733C9.79861 24.4893 9.43195 24.7907 9.02395 25.1253L10.7119 27.1893ZM9.35728 28.056C9.62551 27.9663 9.87793 27.8349 10.1053 27.6667C10.2919 27.5333 10.5013 27.3613 10.7119 27.1893L9.02528 25.1267C8.87329 25.2542 8.71901 25.3774 8.55995 25.496C8.47328 25.5587 8.48528 25.5387 8.54795 25.5173L9.35728 28.056ZM7.48528 27.9627C8.07743 28.2193 8.74254 28.2524 9.35728 28.056L8.54528 25.516L7.48528 27.9627ZM6.22261 26.9653C6.41595 27.1587 6.60661 27.3493 6.77995 27.5013C6.96261 27.6613 7.19061 27.836 7.48661 27.964L8.54528 25.516C8.60661 25.5427 8.61595 25.564 8.53595 25.4933C8.38976 25.3597 8.24748 25.2219 8.10928 25.08L6.22261 26.9653ZM5.03195 25.7733L6.22395 26.9653L8.10928 25.08L6.91728 23.888L5.03195 25.7733ZM4.03461 24.512C4.16128 24.8053 4.33595 25.0347 4.49595 25.2187C4.64795 25.3907 4.83861 25.5813 5.03195 25.7733L6.91728 23.888C6.77543 23.7498 6.6376 23.6075 6.50395 23.4613C6.43328 23.3813 6.45461 23.3907 6.48128 23.452L4.03461 24.512ZM3.94128 22.64C3.74484 23.2547 3.77801 23.9199 4.03461 24.512L6.48128 23.452L3.94128 22.64ZM4.80795 21.2853C4.64202 21.4821 4.48282 21.6844 4.33061 21.892C4.16237 22.1194 4.03098 22.3718 3.94128 22.64L6.48128 23.452C6.45995 23.5147 6.44128 23.5267 6.50261 23.4387C6.57195 23.3413 6.67595 23.212 6.87195 22.9733L4.80795 21.2853ZM5.61328 20.3C5.63195 20.1627 5.68528 20.1467 5.53461 20.364C5.39195 20.5707 5.17061 20.8427 4.80795 21.2853L6.87195 22.9733C7.20528 22.5653 7.50795 22.1987 7.72528 21.8853C7.93461 21.584 8.18795 21.168 8.25728 20.656L5.61328 20.3ZM5.61328 20.3L8.25728 20.656C8.31995 20.1894 8.25797 19.7145 8.07764 19.2796C7.89732 18.8448 7.60507 18.4654 7.23061 18.18L5.61328 20.3ZM4.34661 20.1733C4.91728 20.2307 5.26661 20.2667 5.51328 20.3107C5.77328 20.3573 5.72395 20.384 5.61328 20.3L7.23061 18.18C6.81995 17.8667 6.34795 17.752 5.98528 17.6867C5.61061 17.62 5.13861 17.5733 4.61195 17.52L4.34661 20.1733ZM2.77595 19.8293C3.06128 19.976 3.34128 20.0427 3.58128 20.0827C3.80795 20.12 4.07595 20.148 4.34795 20.1747L4.61195 17.52C4.41445 17.5035 4.21881 17.4813 4.02261 17.4533C3.91595 17.4347 3.93861 17.428 3.99861 17.4587L2.77595 19.8293ZM1.51995 18.44C1.75692 19.0405 2.20366 19.5346 2.77728 19.8307L3.99995 17.46L1.51995 18.44ZM1.33328 16.8427C1.33328 17.1147 1.33328 17.3853 1.34795 17.6147C1.36395 17.8573 1.40128 18.1427 1.52128 18.4413L3.99995 17.4587C4.02395 17.5213 4.01595 17.5427 4.00928 17.436C4.00049 17.2384 3.99737 17.0405 3.99995 16.8427H1.33328ZM1.33328 15.1573V16.8427H3.99995V15.1573H1.33328ZM1.51995 13.5587C1.41951 13.8235 1.36146 14.1025 1.34795 14.3853C1.33195 14.6147 1.33328 14.8853 1.33328 15.1587H3.99995C3.99995 14.8493 3.99995 14.6827 4.00928 14.5627C4.01595 14.456 4.02395 14.4773 3.99995 14.54L1.51995 13.5587ZM2.77728 12.1707C2.20414 12.4661 1.75746 12.9592 1.51995 13.5587L3.99995 14.54L2.77728 12.1707ZM4.34928 11.824C4.07728 11.852 3.80928 11.8773 3.58261 11.9173C3.34261 11.9573 3.06261 12.024 2.77728 12.1707L3.99995 14.54C3.93995 14.5707 3.91861 14.564 4.02395 14.5467C4.22013 14.5183 4.4171 14.4956 4.61461 14.4787L4.34928 11.824ZM5.61595 11.6987C5.72661 11.6147 5.77595 11.6413 5.51461 11.688C5.26795 11.732 4.91861 11.768 4.34928 11.8253L4.61461 14.4787C5.13861 14.4253 5.61195 14.38 5.98795 14.312C6.34928 14.2467 6.82261 14.132 7.23328 13.8187L5.61595 11.6987ZM5.61595 11.6987L7.23328 13.8187C7.6075 13.5332 7.89948 13.1537 8.07957 12.7188C8.25966 12.284 8.32143 11.8092 8.25861 11.3427L5.61595 11.6987ZM4.80928 10.7133C5.17195 11.156 5.39328 11.428 5.53728 11.6347C5.68795 11.852 5.63461 11.836 5.61595 11.6987L8.25861 11.3427C8.18928 10.8307 7.93728 10.416 7.72661 10.1133C7.50928 9.80001 7.20661 9.43334 6.87328 9.02534L4.80928 10.7133ZM3.94261 9.35734C4.03995 9.66401 4.19061 9.90801 4.33195 10.1067C4.46528 10.2933 4.63728 10.5027 4.80928 10.7133L6.87328 9.02534C6.74571 8.87337 6.62255 8.71908 6.50395 8.56001C6.44128 8.47334 6.46261 8.48401 6.48261 8.54667L3.94261 9.35734ZM4.03595 7.48667C3.77967 8.07843 3.74651 8.74301 3.94261 9.35734L6.48261 8.54667L4.03595 7.48667ZM5.03328 6.22401C4.83995 6.41734 4.64928 6.60667 4.49728 6.78001C4.30732 6.98986 4.15163 7.22834 4.03595 7.48667L6.48261 8.54667C6.45595 8.60801 6.43461 8.61734 6.50528 8.53601C6.58528 8.44534 6.70128 8.32801 6.91861 8.10934L5.03328 6.22401ZM6.22528 5.03334L5.03328 6.22401L6.91861 8.10934L8.11195 6.91867L6.22528 5.03334ZM7.48661 4.03467C7.22819 4.15077 6.9897 4.30691 6.77995 4.49734C6.58959 4.67026 6.40462 4.84902 6.22528 5.03334L8.11195 6.91867C8.32928 6.70001 8.44661 6.58401 8.53728 6.50534C8.61728 6.43334 8.60795 6.45467 8.54661 6.48134L7.48661 4.03467ZM9.35861 3.94134C8.74388 3.74491 8.07876 3.77807 7.48661 4.03467L8.54661 6.48134L9.35861 3.94134ZM10.7119 4.80801C10.5013 4.63601 10.2946 4.46534 10.1066 4.33201C9.87936 4.16329 9.62692 4.03145 9.35861 3.94134L8.54661 6.48134C8.48395 6.46134 8.47195 6.44134 8.55995 6.50267C8.65728 6.57334 8.78661 6.67734 9.02528 6.87334L10.7119 4.80801ZM11.6986 5.61467C11.8359 5.63334 11.8519 5.68667 11.6346 5.53601C11.3199 5.30421 11.013 5.06185 10.7146 4.80934L9.02528 6.87334C9.43328 7.20667 9.79861 7.50801 10.1119 7.72667C10.4133 7.93601 10.8293 8.18801 11.3413 8.25734L11.6986 5.61467ZM11.6986 5.61467L11.3426 8.25734C11.8092 8.32001 12.2841 8.25803 12.719 8.07771C13.1539 7.89738 13.5333 7.60514 13.8186 7.23067L11.6986 5.61467ZM11.8253 4.34801C11.7679 4.91867 11.7319 5.26801 11.6879 5.51467C11.6413 5.77467 11.6146 5.72534 11.6986 5.61467L13.8186 7.23067C14.1319 6.82001 14.2466 6.34801 14.3119 5.98667C14.3786 5.61201 14.4266 5.13867 14.4786 4.61334L11.8253 4.34801ZM12.1693 2.77734C12.043 3.0308 11.9575 3.30258 11.9159 3.58267C11.8786 3.80934 11.8519 4.07734 11.8253 4.34934L14.4786 4.61334C14.496 4.41594 14.5182 4.22032 14.5453 4.02401C14.5639 3.91734 14.5706 3.94134 14.5399 4.00001L12.1693 2.77734ZM13.5599 1.52001C12.9595 1.75698 12.4654 2.20372 12.1693 2.77734L14.5399 4.00001L13.5599 1.52001ZM15.1573 1.33334C14.8853 1.33334 14.6146 1.33334 14.3853 1.34801C14.1024 1.36152 13.8234 1.41957 13.5586 1.52001L14.5413 4.00001C14.4786 4.02401 14.4573 4.01601 14.5639 4.00934C14.6839 4.00134 14.8506 4.00001 15.1586 4.00001L15.1573 1.33334ZM16.8426 1.33334H15.1573V4.00001H16.8426V1.33334ZM18.4399 1.52001C18.1751 1.41957 17.8962 1.36152 17.6133 1.34801C17.3866 1.33201 17.1159 1.33334 16.8439 1.33334V4.00001C17.1519 4.00001 17.3186 4.00001 17.4386 4.00934C17.5453 4.01601 17.5226 4.02401 17.4599 4.00001L18.4399 1.52001ZM19.8306 2.77734C19.5345 2.20372 19.0404 1.75698 18.4399 1.52001L17.4599 4.00001L19.8306 2.77734ZM19.9999 16C19.9999 17.0609 19.5785 18.0783 18.8284 18.8284C18.0782 19.5786 17.0608 20 15.9999 20V22.6667C17.7681 22.6667 19.4637 21.9643 20.714 20.7141C21.9642 19.4638 22.6666 17.7681 22.6666 16H19.9999ZM15.9999 12C17.0608 12 18.0782 12.4214 18.8284 13.1716C19.5785 13.9217 19.9999 14.9391 19.9999 16H22.6666C22.6666 14.2319 21.9642 12.5362 20.714 11.286C19.4637 10.0357 17.7681 9.33334 15.9999 9.33334V12ZM11.9999 16C11.9999 14.9391 12.4214 13.9217 13.1715 13.1716C13.9217 12.4214 14.9391 12 15.9999 12V9.33334C14.2318 9.33334 12.5361 10.0357 11.2859 11.286C10.0357 12.5362 9.33328 14.2319 9.33328 16H11.9999ZM15.9999 20C14.9391 20 13.9217 19.5786 13.1715 18.8284C12.4214 18.0783 11.9999 17.0609 11.9999 16H9.33328C9.33328 17.7681 10.0357 19.4638 11.2859 20.7141C12.5361 21.9643 14.2318 22.6667 15.9999 22.6667V20Z" fill="#464646"/>
</svg>
